<?xml version="1.0" encoding="utf-8"?>
<!-- Generator: Adobe Illustrator 22.1.0, SVG Export Plug-In . SVG Version: 6.00 Build 0)  -->
<svg version="1.1" id="Capa_1" xmlns="http://www.w3.org/2000/svg" xmlns:xlink="http://www.w3.org/1999/xlink" x="20px" y="20px" width="30px" height="30px"
	 viewBox="0 0 750.1 750.1" style="enable-background:new 0 0 750.1 750.1;" xml:space="preserve">
<style type="text/css">
	.st0{fill:#E3453D;}
</style>
<g>
	<g>
		<g>
			<g>
				<path class="st0" d="M453.1,234.2c-29.4,0-54.3,23.8-54.3,54.3c0,30.5,23.8,54.3,54.3,54.3c29.4,0,54.3-23.8,54.3-54.3
					C507.4,258,482.6,234.2,453.1,234.2z M453.1,332.6c-24.9,0-44.1-19.2-44.1-44.1c0-24.9,19.2-44.1,44.1-44.1
					c23.8,0,44.1,19.2,44.1,44.1C497.3,313.4,478,332.6,453.1,332.6z"/>
				<path class="st0" d="M295.9,234.2c-29.4,0-54.3,23.8-54.3,54.3c0,30.5,23.8,54.3,54.3,54.3c29.4,0,54.3-23.8,54.3-54.3
					C350.2,258,325.3,234.2,295.9,234.2z M295.9,332.6c-24.9,0-44.1-19.2-44.1-44.1c0-24.9,19.2-44.1,44.1-44.1
					c23.8,0,44.1,19.2,44.1,44.1C340,313.4,320.8,332.6,295.9,332.6z"/>
			</g>
			<path class="st0" d="M392,149.3c14.7,0,26-11.3,26-26s-11.3-26-26-26c-14.7,0-26,11.3-26,26S377.3,149.3,392,149.3z"/>
			<polygon class="st0" points="369.4,267 369.4,311.1 394.3,311.1 394.3,250 351.3,217.2 373.9,185.6 437.3,218.4 446.3,200.3 
				385.3,168.6 392,159.5 364.9,140.3 308.3,220.6 330.9,237.6 			"/>
			<path class="st0" d="M397.7,313.4h-23.8c-4.5,0-7.9,3.4-7.9,7.9s3.4,6.8,7.9,6.8h23.8c4.5,0,6.8-3.4,6.8-6.8
				C404.5,316.8,402.2,313.4,397.7,313.4z"/>
			<path class="st0" d="M375.1,0C245,0,138.6,106.4,138.6,236.5s236.5,513.7,236.5,513.7s236.5-383.6,236.5-514.8
				C611.5,105.2,505.2,0,375.1,0z M375.1,420.9c-106.4,0-192.3-86-192.3-192.3s86-192.3,192.3-192.3s192.3,86,192.3,192.3
				C566.3,334.9,480.3,420.9,375.1,420.9z"/>
		</g>
	</g>
</g>
</svg>
